<?xml version="1.0" encoding="utf-8"?>
<!-- Generator: Adobe Illustrator 23.0.2, SVG Export Plug-In . SVG Version: 6.00 Build 0)  -->
<svg version="1.1" id="Layer_1" xmlns="http://www.w3.org/2000/svg" xmlns:xlink="http://www.w3.org/1999/xlink" x="0px" y="0px"
	 viewBox="0 0 474.1 222.5" style="enable-background:new 0 0 474.1 222.5;" xml:space="preserve">
<style type="text/css">
	.st0{fill:#FFFFFF;}
	.st1{opacity:0.5;fill:#FFFFFF;}
</style>
<path class="st0" d="M185.1,222.5l0-165.9h31.4l0,165.9H185.1z"/>
<path class="st0" d="M289.2,222.5c-29.4,0-53.1-23.8-53.1-53.1V103h31.4v69.5c0,11.7,10,21.3,21.7,21.3c11.7,0,21.7-9.5,21.7-21.3
	V103h31.4v66.4C342.3,198.8,318.5,222.5,289.2,222.5z"/>
<path class="st0" d="M59.1,104.4c-10,0-19.4,2.5-27.6,6.9V64.1H0v98.5l0,0c0,0.3,0,0.6,0,0.9c0,32.6,26.4,59.1,59.1,59.1
	s59.1-26.4,59.1-59.1S91.7,104.4,59.1,104.4z M59.1,195.5c-17.7,0-32-14.3-32-32c0-17.7,14.3-32,32-32c17.7,0,32,14.3,32,32
	C91.1,181.2,76.7,195.5,59.1,195.5z"/>
<path class="st0" d="M134.1,222.5V103h31.4v119.5H134.1z"/>
<path class="st1" d="M134.2,0c17.6,1.5,31.4,16.4,31.4,34.4l0,0l0,46L142.2,57c-8.1-8.1-7.9-23.6-7.9-23.6L134.2,0z"/>
<path class="st0" d="M79.6,54.6C81.1,72.2,96,86,114,86l0,0l46,0l-23.4-23.4c-8.1-8.1-23.6-7.9-23.6-7.9L79.6,54.6z"/>
<path class="st0" d="M442.9,184.8c-5.1,8.2-13.7,13.7-23.5,13.7c-14.2,0-25.9-11.4-28.1-26.3l82.1,0.1h0v0c0.5-3,0.7-6.1,0.7-9.3
	c0-33-25.9-59.8-57.9-59.8s-57.9,26.8-57.9,59.8c0,33,25.9,59.8,57.9,59.8h3c22.1,0,41.5-11.6,52.2-28.9L442.9,184.8z M416.2,128.7
	c13,0,23.7,9.8,25.7,22.5l-51.4,0C392.5,138.4,403.3,128.7,416.2,128.7z"/>
</svg>
